<?xml version="1.0" standalone="no"?>
<!DOCTYPE svg PUBLIC "-//W3C//DTD SVG 20010904//EN"
 "http://www.w3.org/TR/2001/REC-SVG-20010904/DTD/svg10.dtd">
<svg version="1.0" xmlns="http://www.w3.org/2000/svg"
 width="183.000000pt" height="82.000000pt" viewBox="0 0 183.000000 82.000000"
 preserveAspectRatio="xMidYMid meet">

<g transform="translate(0.000000,82.000000) scale(0.100000,-0.100000)"
fill="#000080" stroke="none">
<path d="M344 682 c-66 -23 -128 -72 -162 -130 -23 -41 -27 -58 -27 -127 0
-69 4 -86 28 -127 95 -162 329 -197 482 -73 55 45 55 45 135 45 89 0 139 15
164 51 30 44 17 92 -33 119 l-25 13 27 14 c29 15 43 50 32 82 -12 38 -56 51
-165 51 -100 0 -102 0 -147 35 -83 64 -206 82 -309 47z m218 -18 c25 -8 64
-31 87 -50 l41 -36 0 -153 0 -153 -41 -36 c-76 -65 -200 -85 -305 -49 -63 21
-145 102 -162 159 -29 98 -8 178 63 250 30 31 68 57 95 67 59 20 164 21 222 1z
m282 -130 c23 -9 20 -41 -5 -54 -28 -16 -49 -6 -49 23 0 36 17 45 54 31z m19
-145 c17 -28 1 -49 -38 -49 -32 0 -35 3 -35 28 0 16 3 32 7 36 12 12 55 2 66
-15z"/>
<path d="M389 507 c-30 -18 -72 -45 -94 -60 l-40 -27 48 0 c44 0 48 -2 61 -33
31 -74 122 -101 194 -57 34 21 37 27 23 49 -6 10 -13 11 -29 2 -41 -22 -92 -8
-92 26 0 8 22 13 68 15 61 3 67 5 70 26 2 15 -8 34 -31 57 -48 48 -101 48
-178 2z m119 -24 c4 -16 -22 -27 -43 -19 -22 8 -6 38 18 34 11 -2 22 -9 25
-15z"/>
<path d="M1010 416 c0 -79 3 -97 21 -120 24 -31 81 -36 117 -10 20 14 22 14
22 0 0 -12 11 -16 50 -16 l50 0 0 120 0 120 -50 0 -50 0 0 -72 c0 -81 -8 -102
-36 -96 -16 3 -19 14 -22 86 l-3 82 -49 0 -50 0 0 -94z"/>
<path d="M1341 482 c-51 -50 -48 -164 4 -198 25 -16 80 -16 117 0 13 6 15 3
11 -14 -8 -31 -40 -43 -95 -37 l-49 6 3 -37 3 -37 62 -3 c77 -4 126 16 153 60
17 29 20 50 20 161 l0 127 -45 0 c-25 0 -45 -5 -45 -10 0 -7 -6 -7 -19 0 -38
20 -91 12 -120 -18z m131 -67 c8 -19 8 -31 0 -50 -26 -56 -84 -8 -62 50 6 15
17 25 30 25 12 0 25 -10 32 -25z"/>
</g>
</svg>
